<svg width="24" height="27" viewBox="0 0 24 27" fill="none" xmlns="http://www.w3.org/2000/svg">
<path d="M14.8178 21.5518C14.7551 23.4334 14.6718 24.3985 14.1734 25.1254C13.189 26.5609 11.6407 26.5291 10.1979 25.5485C9.56193 25.1163 9.15196 24.8365 8.4829 23.594C8.4829 23.594 8.23061 22.5247 6.61423 21.5184C5.06917 20.3767 3.97151 20.5393 3.97151 20.5393C2.56576 20.3711 2.17379 20.0963 1.53863 19.6647C0.095844 18.6841 -0.499197 17.2605 0.48576 15.8242C0.984223 15.0973 1.85739 14.6703 3.59499 13.9258C3.59499 13.9258 6.97094 12.3853 9.18582 12.0866C10.7854 11.8718 12.2276 12.8567 12.2276 12.8567L12.6732 13.1596C12.6732 13.1596 14.1836 14.1801 14.5028 15.7001C14.957 17.8782 14.8175 21.5522 14.8178 21.5518ZM10.1249 8.86324C11.6334 9.88839 14.1568 8.82236 15.7613 6.48261C17.3658 4.14286 17.444 1.41497 15.9356 0.389817C14.4272 -0.635335 11.9037 0.430702 10.2992 2.77045C8.69474 5.1102 8.61653 7.83809 10.1249 8.86324ZM4.69387 11.1877C6.15601 11.4322 7.65199 9.79285 8.03481 7.52545C8.41763 5.25805 7.54308 3.2214 6.08121 2.9764C4.61935 2.7314 3.1235 4.37148 2.74027 6.6386C2.35745 8.906 3.23228 10.9422 4.69387 11.1877ZM16.4746 13.1786C17.983 14.2037 20.5069 13.138 22.1114 10.7982C23.7158 8.45847 23.7937 5.7303 22.2852 4.70515C20.7768 3.68 18.2533 4.74604 16.6488 7.08578C15.0444 9.42553 14.9662 12.1534 16.4746 13.1786ZM23.4552 14.7835C22.6935 13.5167 20.47 13.4479 18.488 14.6291C16.506 15.8102 15.5172 17.7943 16.2789 19.0611C17.041 20.3275 19.2644 20.3963 21.2461 19.2156C23.2279 18.0348 24.217 16.0503 23.4552 14.7835Z" fill="#030104"/>
</svg>
